<?xml version="1.0" standalone="no"?>
<!DOCTYPE svg PUBLIC "-//W3C//DTD SVG 20010904//EN"
 "http://www.w3.org/TR/2001/REC-SVG-20010904/DTD/svg10.dtd">
<svg version="1.0" xmlns="http://www.w3.org/2000/svg"
 width="48.000000pt" height="47.000000pt" viewBox="0 0 48.000000 47.000000"
 preserveAspectRatio="xMidYMid meet">

<g transform="translate(0.000000,47.000000) scale(0.100000,-0.100000)"
fill="#7B7B7B" stroke="none">
<path d="M135 380 c3 -5 10 -10 16 -10 5 0 9 5 9 10 0 6 -7 10 -16 10 -8 0
-12 -4 -9 -10z"/>
<path d="M190 341 c0 -46 -10 -61 -40 -61 -35 0 -54 22 -46 55 7 28 -17 37
-28 9 -19 -50 13 -94 69 -94 48 0 75 29 75 80 0 29 -4 40 -15 40 -10 0 -15
-10 -15 -29z"/>
<path d="M322 241 c4 -13 18 -16 19 -4 0 4 -5 9 -11 12 -7 2 -11 -2 -8 -8z"/>
<path d="M362 239 c2 -6 8 -10 13 -10 5 0 11 4 13 10 2 6 -4 11 -13 11 -9 0
-15 -5 -13 -11z"/>
<path d="M80 181 c0 -66 10 -80 56 -79 17 1 36 -2 42 -6 7 -4 21 -2 32 4 24
13 26 52 4 74 -26 26 -52 19 -73 -21 -19 -37 -31 -27 -31 26 0 34 -4 51 -15
55 -12 4 -15 -5 -15 -53z m120 -47 c0 -16 -16 -19 -25 -4 -8 13 4 32 16 25 5
-4 9 -13 9 -21z"/>
<path d="M268 199 c-11 -6 -18 -22 -18 -39 0 -24 6 -33 33 -44 l32 -13 -27 -8
c-16 -4 -28 -14 -28 -22 0 -20 49 -9 71 16 8 10 26 22 40 26 30 10 39 22 39
57 0 33 -27 29 -32 -5 -4 -29 -38 -36 -38 -8 0 22 -25 51 -43 51 -7 0 -20 -5
-29 -11z m40 -43 c3 -12 -1 -17 -10 -14 -7 3 -15 13 -16 22 -3 12 1 17 10 14
7 -3 15 -13 16 -22z"/>
</g>
</svg>
